Coordinates
version=1
nRows=29
nColumns=22
inDegrees=yes

Units are S.I. units (second, meters, Newtons, ...)
If the header above contains a line with 'inDegrees', this indicates whether rotational values are in degrees (yes) or radians (no).

endheader
time	pelvis_tilt	pelvis_list	pelvis_rotation	pelvis_tx	pelvis_ty	pelvis_tz	hip_flexion_r	hip_adduction_r	hip_rotation_r	knee_angle_r	ankle_angle_r	subtalar_angle_r	hip_flexion_l	hip_adduction_l	hip_rotation_l	knee_angle_l	ankle_angle_l	subtalar_angle_l	lumbar_extension	lumbar_bending	lumbar_rotation
      3.49000000	     -3.25349737	      5.85113348	    163.97529017	      0.28768229	      0.91823245	     -0.48492524	     -6.59239846	      0.66956402	     -8.01373982	    -16.55193265	     10.74589203	      6.54590053	     23.86888750	     -7.69888437	    -16.95863643	    -48.21979831	      4.46800189	     -6.94868321	    -10.01723322	     -2.81113738	      9.43231665
      3.50000000	     -3.33138571	      5.74372693	    164.24176316	      0.27931432	      0.91742054	     -0.48641676	     -7.40343143	      0.57305201	     -8.18293270	    -16.25946498	     11.00419414	      6.50823038	     23.81469453	     -7.84772442	    -18.29897514	    -44.95781645	      4.65365454	     -7.31980723	    -10.00385365	     -2.94192781	      9.76895263
      3.51000000	     -3.40251822	      5.64241556	    164.46125086	      0.27082632	      0.91652263	     -0.48776782	     -8.19998224	      0.46534540	     -8.33365216	    -15.98821846	     11.24895542	      6.47638900	     23.66211358	     -7.97458800	    -19.79084759	    -41.55955271	      4.78190048	     -7.64414409	     -9.97745921	     -3.05968790	     10.14064348
      3.52000000	     -3.45053006	      5.54292853	    164.62361069	      0.26222828	      0.91551175	     -0.48898879	     -8.95086657	      0.34125110	     -8.44549735	    -15.76312614	     11.49617268	      6.46314509	     23.45137903	     -8.08455048	    -21.47696881	    -38.08518692	      4.85741315	     -7.87919121	     -9.91568309	     -3.16365760	     10.52220362
      3.53000000	     -3.47103002	      5.45165671	    164.74107784	      0.25352223	      0.91437878	     -0.49003197	     -9.65139488	      0.20428003	     -8.52698246	    -15.58770038	     11.74332429	      6.48290562	     23.21686303	     -8.16557185	    -23.32785952	    -34.59677433	      4.89618057	     -8.01832208	     -9.81815031	     -3.23861366	     10.90168592
      3.54000000	     -3.47088974	      5.37807791	    164.83839833	      0.24471429	      0.91314202	     -0.49083788	    -10.30836153	      0.05890707	     -8.61774981	    -15.46623501	     11.93530118	      6.55165072	     22.98070577	     -8.19046074	    -25.22933591	    -31.14660388	      4.94267581	     -8.05095817	     -9.69932941	     -3.27514581	     11.28198866
      3.55000000	     -3.40182043	      5.31890242	    164.91007211	      0.23584424	      0.91171927	     -0.49140702	    -10.85477672	     -0.08574811	     -8.67875764	    -15.42827746	     12.14115693	      6.67287513	     22.83708393	     -8.17892536	    -27.14389148	    -27.83262372	      4.97577610	     -7.93982663	     -9.50806943	     -3.25779535	     11.62544876
      3.56000000	     -3.25574501	      5.28656058	    164.96148813	      0.22693775	      0.91011806	     -0.49171799	    -11.26944384	     -0.22127260	     -8.75176392	    -15.49870057	     12.30299641	      6.83453294	     22.81126439	     -8.12857830	    -28.90265686	    -24.70134495	      5.01249269	     -7.70097400	     -9.24282910	     -3.17558944	     11.99591991
      3.57000000	     -3.14217978	      5.29139578	    165.04514240	      0.21790986	      0.90851094	     -0.49174829	    -11.72305394	     -0.34895068	     -8.82792790	    -15.58792564	     12.40167476	      7.13375520	     22.78630519	     -8.01937765	    -30.39994202	    -21.79546205	      5.11172724	     -7.21370392	     -9.02744164	     -3.04381632	     12.25710405
      3.58000000	     -2.92633509	      5.33394728	    165.09693934	      0.20886551	      0.90672551	     -0.49163415	    -12.01213828	     -0.44321202	     -8.86355677	    -15.80169201	     12.47068271	      7.46035186	     22.92478895	     -7.94957574	    -31.60866370	    -19.22453189	      5.20366744	     -6.62333725	     -8.71236909	     -2.84513807	     12.53867823
      3.59000000	     -2.68446693	      5.41471540	    165.13124303	      0.19974517	      0.90490347	     -0.49140589	    -12.24811486	     -0.51489169	     -8.83692848	    -16.08368364	     12.49458746	      7.82976433	     23.12876830	     -7.92527433	    -32.51625009	    -17.03125906	      5.31233086	     -5.96716543	     -8.37980744	     -2.60461596	     12.80743641
      3.60000000	     -2.44970505	      5.53038819	    165.14292865	      0.19048789	      0.90313312	     -0.49113365	    -12.48129627	     -0.57091592	     -8.72878469	    -16.40704743	     12.43284507	      8.25050185	     23.35003464	     -7.97434634	    -33.16585597	    -15.27576983	      5.43926544	     -5.30217836	     -8.05516477	     -2.34728147	     13.07429870
      3.61000000	     -2.25038790	      5.67801499	    165.11520006	      0.18106248	      0.90148845	     -0.49087772	    -12.74535901	     -0.62210439	     -8.52361022	    -16.76039849	     12.28812937	      8.69143243	     23.55299931	     -8.12943679	    -33.65669938	    -14.02625997	      5.57188942	     -4.74867478	     -7.76517823	     -2.09171052	     13.38267637
      3.62000000	     -2.11626155	      5.84232392	    165.07019240	      0.17139823	      0.90002885	     -0.49063115	    -13.09367307	     -0.67885282	     -8.19339308	    -17.10191432	     12.03174611	      9.10717472	     23.70794063	     -8.38128704	    -34.04978987	    -13.32414071	      5.75555300	     -4.39301780	     -7.53164418	     -1.86256589	     13.66659842
      3.63000000	     -2.08260152	      6.03092296	    165.01786996	      0.16151853	      0.89879176	     -0.49034967	    -13.51495626	     -0.75845447	     -7.83717766	    -17.53177753	     11.73797807	      9.72816123	     23.78328410	     -8.73875792	    -34.38686863	    -13.19625991	      5.92769318	     -4.11444190	     -7.40524812	     -1.65975980	     13.96386813
      3.64000000	     -2.13418029	      6.19169506	    164.94284591	      0.15127819	      0.89779003	     -0.49004242	    -14.02832097	     -0.90497274	     -7.42034710	    -17.95588212	     11.31177716	     10.23037986	     23.77060276	     -9.14809971	    -34.79515626	    -13.58205030	      6.11168104	     -4.15206628	     -7.32440925	     -1.53052712	     14.28394406
      3.65000000	     -2.28503034	      6.33040667	    164.86226581	      0.14068558	      0.89704150	     -0.48967770	    -14.63281569	     -1.11275380	     -6.94511724	    -18.41046775	     10.78695468	     10.78552896	     23.65057218	     -9.59927243	    -35.31175784	    -14.43124136	      6.24611120	     -4.42104053	     -7.31057130	     -1.47336814	     14.60465160
      3.66000000	     -2.53710380	      6.41091492	    164.80178244	      0.12966690	      0.89654975	     -0.48915625	    -15.32565786	     -1.42596815	     -6.50831795	    -18.89020790	     10.16488086	     11.47938316	     23.39738804	    -10.00799461	    -35.94311229	    -15.60458946	      6.26830116	     -5.00003864	     -7.34365708	     -1.51489068	     14.91377664
      3.67000000	     -2.86409453	      6.44255508	    164.74105642	      0.11829752	      0.89629502	     -0.48846015	    -16.03632874	     -1.82864480	     -6.03978328	    -19.46780486	      9.43198114	     12.05310070	     23.00946724	    -10.36534633	    -36.71686614	    -16.96252459	      6.19075750	     -5.73611669	     -7.40883402	     -1.62886786	     15.20736302
      3.68000000	     -3.24793589	      6.38655423	    164.71150515	      0.10654636	      0.89626647	     -0.48750927	    -16.73727636	     -2.35118984	     -5.60012405	    -20.13900005	      8.54511773	     12.65928505	     22.49793616	    -10.58668931	    -37.62578957	    -18.36491789	      5.98572324	     -6.69842905	     -7.46758667	     -1.84389245	     15.44216624
      3.69000000	     -3.65984005	      6.25156580	    164.71538870	      0.09450517	      0.89645728	     -0.48627735	    -17.36819128	     -2.97098338	     -5.17392345	    -20.94754194	      7.48453989	     13.25856019	     21.88743761	    -10.65190819	    -38.61202912	    -19.69447818	      5.66388820	     -7.85978768	     -7.50388610	     -2.13914688	     15.62316693
      3.70000000	     -4.07964569	      6.06123694	    164.74357423	      0.08228823	      0.89685960	     -0.48474655	    -17.87552966	     -3.66083989	     -4.75308821	    -21.94046521	      6.25432405	     13.82327173	     21.20839470	    -10.57044089	    -39.59934874	    -20.89446062	      5.26538837	     -9.18159612	     -7.52019004	     -2.47744236	     15.79426416
      3.71000000	     -4.47613423	      5.78494338	    164.87058296	      0.06990716	      0.89743497	     -0.48278894	    -18.22824371	     -4.41306250	     -4.38831309	    -23.10150480	      4.78110485	     14.41105865	     20.52707607	    -10.25995554	    -40.42247087	    -21.90893334	      4.84445925	    -10.72171927	     -7.48138463	     -2.86879033	     15.79765262
      3.72000000	     -4.84123110	      5.49288489	    165.03010732	      0.05755965	      0.89820611	     -0.48052360	    -18.37147562	     -5.16478672	     -3.98098685	    -24.50087960	      3.08644479	     14.93275474	     19.85198571	     -9.82238742	    -41.01849282	    -22.76144896	      4.42173655	    -12.28954893	     -7.42434123	     -3.24693513	     15.79923606
      3.73000000	     -5.15813702	      5.18692739	    165.28373951	      0.04526320	      0.89913018	     -0.47788567	    -18.30307132	     -5.88353463	     -3.58138631	    -26.10911766	      1.11482023	     15.43247345	     19.23362543	     -9.24742128	    -41.27450096	    -23.47736365	      4.06826529	    -13.86195393	     -7.33848039	     -3.59778254	     15.67747933
      3.74000000	     -5.42984358	      4.90574791	    165.60298097	      0.03312318	      0.90020626	     -0.47495712	    -18.00912863	     -6.52938719	     -3.13429249	    -27.94319494	     -1.12043998	     15.88683475	     18.66848585	     -8.60927902	    -41.20524013	    -24.10227035	      3.81145986	    -15.31047986	     -7.25029641	     -3.88539982	     15.49314402
      3.75000000	     -5.66082937	      4.67114012	    165.97033499	      0.02119379	      0.90141601	     -0.47180669	    -17.49142820	     -7.07510593	     -2.59799040	    -29.99591187	     -3.60621166	     16.29998340	     18.14190700	     -7.95356909	    -40.85097751	    -24.65615305	      3.74324302	    -16.57322843	     -7.17271211	     -4.09313203	     15.26911243
      3.76000000	     -5.85941083	      4.49646771	    166.38277497	      0.00956073	      0.90274042	     -0.46849381	    -16.75192215	     -7.50120385	     -1.97845981	    -32.27000824	     -6.28023575	     16.63974992	     17.64710959	     -7.32579237	    -40.28453085	    -25.16997613	      3.74827665	    -17.55577764	     -7.12587654	     -4.21570668	     15.02324649
      3.77000000	     -6.02729390	      4.38465098	    166.82544641	     -0.00174382	      0.90413263	     -0.46507836	    -15.79754967	     -7.79389883	     -1.24183404	    -34.75283379	     -9.06520274	     16.88259325	     17.16709267	     -6.74534351	    -39.58275652	    -25.63635099	      3.89004357	    -18.23394362	     -7.11021738	     -4.25712071	     14.76362717
